<svg width="176.000000" height="49.000000" viewBox="0 0 176 49" fill="none" xmlns="http://www.w3.org/2000/svg" xmlns:xlink="http://www.w3.org/1999/xlink">
	<desc>
			Created with Pixso.
	</desc>
	<defs/>
	<path id="Vector" d="M0.18 0.03L25.52 0.03C33.81 0.03 42.86 -0.44 48.49 2.17C58.22 6.67 59.34 21.18 50.28 26.78C44.63 30.29 35.73 29.81 26.58 29.81L0 29.81L0 0.56C0 0.31 -0.03 0.06 0.18 0.03ZM19.4 22.14C26.74 22.2 33.98 22.93 35.92 17.68C37.3 13.96 35.46 9.92 32.33 8.59C29.03 7.18 24.05 8.55 19.58 8.05C19.16 12.39 19.52 17.5 19.4 22.14Z" fill="#254F9C" fill-opacity="1.000000" fill-rule="evenodd"/>
	<path id="Vector" d="M74.89 0.03L102.73 0.03C108.42 9.95 114.85 20.07 120.14 29.81L82.07 29.81C81.99 28.68 83.39 27.24 84.22 25.88C85.09 24.47 85.75 22.85 86.73 21.78L97.15 21.78C95.18 17.15 91.63 12.53 89.07 7.87C84.26 14.93 80.09 22.62 75.42 29.81L57.1 29.81C56.99 28.74 58.14 27.69 58.9 26.42C63.92 17.99 69.49 8.27 74.89 0.03Z" fill="#254F9C" fill-opacity="1.000000" fill-rule="evenodd"/>
	<path id="Vector" d="M124.82 0.03L175.82 0.03L175.82 8.76L144.55 8.76C144.13 10.19 144.49 12.39 144.37 14.11L175.47 14.11L175.47 22.14L144.39 22.14L144.39 29.81L124.63 29.81L124.63 0.56C124.62 0.31 124.61 0.06 124.82 0.03Z" fill="#254F9C" fill-opacity="1.000000" fill-rule="evenodd"/>
	<path id="Vector" d="M19.58 8.05C24.04 8.55 29.01 7.18 32.34 8.59C35.47 9.92 37.31 13.97 35.93 17.68C33.98 22.93 26.72 22.2 19.4 22.14C19.52 17.5 19.16 12.39 19.58 8.05Z" fill="#FFFFFF" fill-opacity="1.000000" fill-rule="evenodd"/>
	<path id="Vector" d="M0.18 36.4L176 36.4L176 48L0 48L0 36.94C0 36.69 -0.03 36.43 0.18 36.4Z" fill="#E52825" fill-opacity="1.000000" fill-rule="evenodd"/>
</svg>
