<svg width="176.000000" height="102.000000" viewBox="0 0 176 102" fill="none" xmlns="http://www.w3.org/2000/svg" xmlns:xlink="http://www.w3.org/1999/xlink">
	<desc>
			Created with Pixso.
	</desc>
	<defs/>
	<path id="Vector" d="M88.22 7C95.79 6.99 103.33 6.05 110.67 4.2L111.59 3.97L112.28 4.61C117.49 9.43 121.12 15.74 122.68 22.68L122.88 23.6L122.22 24.3C111.67 35.18 103.99 48.51 99.87 63.1L99.61 64.03L98.69 64.31C95.29 65.34 91.76 65.87 88.22 65.87C84.65 65.86 81.11 65.32 77.72 64.26L76.83 64L76.57 63.1C72.42 48.51 64.72 35.18 54.17 24.3L53.51 23.6L53.71 22.68C55.29 15.71 58.96 9.4 64.21 4.56L64.9 3.92L65.82 4.15C73.14 6.01 80.66 6.97 88.22 7Z" fill="#002E61" fill-opacity="1.000000" fill-rule="evenodd"/>
	<path id="Vector" d="M57.7 30.52C57.69 23.45 60.13 16.61 64.61 11.14C69.08 5.68 75.31 1.94 82.24 0.55C89.16 -0.83 96.35 0.23 102.58 3.56C108.82 6.88 113.7 12.27 116.41 18.79C119.11 25.31 119.47 32.57 117.42 39.33C115.38 46.09 111.05 51.93 105.18 55.85C99.31 59.78 92.26 61.55 85.23 60.86C78.2 60.17 71.63 57.06 66.64 52.07C63.8 49.24 61.54 45.88 60.01 42.18C58.47 38.49 57.69 34.52 57.7 30.52Z" fill="#002E61" fill-opacity="1.000000" fill-rule="evenodd"/>
	<path id="Vector" d="M65.66 6.9C63.41 9.05 61.47 11.51 59.91 14.21C58.36 16.88 57.2 19.76 56.48 22.77C61.75 28.27 66.34 34.39 70.17 41C73.94 47.55 76.91 54.54 79 61.82C80.42 62.24 81.87 62.58 83.34 62.82C84.94 63.06 86.57 63.18 88.2 63.19C89.85 63.19 91.49 63.07 93.13 62.83C94.56 62.61 95.98 62.3 97.38 61.9C101.6 47.23 109.33 33.82 119.89 22.81C118.42 16.78 115.28 11.3 110.83 7C107.2 7.87 103.53 8.54 99.83 9C95.96 9.47 92.08 9.71 88.18 9.72C84.25 9.71 80.32 9.45 76.43 8.95C72.79 8.48 69.18 7.81 65.62 6.95L65.66 6.9ZM58.24 13.25C59.98 10.23 62.17 7.49 64.73 5.13L65.11 4.77L65.62 4.9C69.26 5.81 72.96 6.51 76.69 7C80.52 7.49 84.36 7.73 88.22 7.74C92.03 7.74 95.83 7.5 99.62 7.04C103.4 6.58 107.16 5.9 110.87 5L111.38 4.87L111.76 5.23C116.84 9.94 120.37 16.09 121.9 22.86L122.02 23.36L121.66 23.73C116.35 29.23 111.74 35.36 107.94 42C104.13 48.6 101.16 55.65 99.11 63L98.96 63.5L98.46 63.66C95.13 64.64 91.68 65.12 88.22 65.1C86.49 65.09 84.77 64.96 83.06 64.69C81.35 64.42 79.66 64.03 78 63.52L77.5 63.36L77.36 62.85C75.28 55.55 72.3 48.55 68.49 42C64.66 35.36 60.04 29.23 54.73 23.73L54.37 23.36L54.49 22.86C55.24 19.48 56.5 16.24 58.24 13.25Z" fill="#E3E3E2" fill-opacity="1.000000" fill-rule="nonzero"/>
	<path id="Vector" d="M58.48 30.52C58.47 23.64 60.86 16.98 65.22 11.67C69.57 6.36 75.64 2.72 82.38 1.38C89.12 0.04 96.11 1.08 102.17 4.32C108.23 7.56 112.98 12.8 115.61 19.15C118.24 25.49 118.59 32.56 116.6 39.13C114.6 45.71 110.39 51.39 104.68 55.21C98.96 59.02 92.1 60.74 85.27 60.07C78.43 59.4 72.03 56.37 67.18 51.52C64.41 48.76 62.22 45.49 60.73 41.88C59.24 38.28 58.47 34.42 58.48 30.52ZM68.55 10.85C64 15.39 61.16 21.38 60.53 27.78C59.9 34.18 61.51 40.6 65.09 45.95C68.66 51.3 73.98 55.24 80.13 57.11C86.29 58.98 92.9 58.65 98.84 56.19C104.79 53.72 109.69 49.28 112.72 43.6C115.75 37.93 116.72 31.38 115.46 25.07C114.21 18.76 110.8 13.09 105.83 9.01C100.85 4.93 94.62 2.7 88.18 2.71C84.54 2.7 80.92 3.42 77.55 4.82C74.18 6.21 71.12 8.26 68.55 10.85Z" fill="#E3E3E2" fill-opacity="1.000000" fill-rule="nonzero"/>
	<path id="Vector" d="M78.08 29C79.01 28.81 79.97 28.88 80.86 29.19C81.7 29.49 82.42 30.05 82.93 30.79L83.4 31.89L82.31 31.49C80.68 30.61 79.04 31.1 77.43 31.58C75.37 32.18 73.37 32.78 71.28 31.01C70.87 30.67 70.53 30.25 70.28 29.79C70.05 29.39 69.84 28.98 69.67 28.56L69 27L70.36 28C70.36 28 73.26 30.24 78.06 29L78.08 29Z" fill="#E3E3E2" fill-opacity="1.000000" fill-rule="nonzero"/>
	<path id="Vector" d="M87.55 21C85.55 21 83.61 21.39 82.87 22.44C82.42 22.83 82.08 23.32 81.87 23.87C81.87 23.87 76.65 20.35 75 28.08C75 28.08 78.17 25.81 80 27.29C80.66 28.12 81.57 28.72 82.61 29C84.92 29.62 84.61 30.08 84.76 30.56C84.76 30.56 84.46 31.28 82.46 32.56C80.46 33.84 79.36 33.23 77.54 32.64C77.54 32.64 77.42 35.33 81.03 35.28C81.46 35.31 81.89 35.31 82.33 35.28C82.33 35.28 78 37.07 79.64 41.52C80.47 40.52 81.55 39.76 82.77 39.32C82.77 39.32 78.08 44.65 84.28 49.84C84.28 49.84 84.28 45.08 86.04 43.62C86.04 43.62 87.04 47.41 86.71 49.49C86.67 50.44 86.45 51.37 86.06 52.25C86.06 52.25 93.42 52.1 91.31 43.25C91.31 43.25 94.26 44.25 93.65 48.25C93.65 48.25 100.25 44.95 95.9 38.16C96.7 38.23 97.45 38.56 98.04 39.1C98.63 39.65 99.02 40.37 99.15 41.17C99.15 41.17 102.68 35.71 96.85 30.52C97.47 30.37 98.13 30.42 98.74 30.64C99.34 30.87 99.87 31.27 100.25 31.8C100.14 30.51 99.71 29.27 99 28.19C98.29 27.11 97.32 26.23 96.18 25.63C95.29 25.14 96.68 23.71 96.33 22.91L87.55 21Z" fill="#CA0538" fill-opacity="1.000000" fill-rule="evenodd"/>
	<path id="Vector" d="M92.11 24.22C92.11 24.22 94.49 21.22 98.05 21.61C98.05 21.61 97.04 26.06 93.13 26.88L92.13 24.22L92.11 24.22Z" fill="#CA0538" fill-opacity="1.000000" fill-rule="evenodd"/>
	<path id="Vector" d="M93.26 24.65C94.1 23.85 95.13 23.3 96.26 23.04C96 23.59 95.63 24.09 95.17 24.49C94.7 24.88 94.15 25.17 93.57 25.34L93.26 24.65Z" fill="#E3E3E2" fill-opacity="1.000000" fill-rule="evenodd"/>
	<path id="Vector" d="M86.25 29C86.04 28.84 85.8 28.73 85.54 28.7C85.29 28.66 85.02 28.7 84.79 28.79C86.2 28.84 86.43 30.84 87.96 30.44C88.23 30.36 88.49 30.23 88.73 30.08C87.73 30.48 86.91 29.56 86.25 29Z" fill="#E3E3E2" fill-opacity="1.000000" fill-rule="evenodd"/>
	<path id="Vector" d="M94.26 34.66C94.14 33.88 93.79 33.14 93.26 32.55C92.73 31.96 92.03 31.55 91.26 31.36C91.51 32.21 91.67 33.1 91.74 34C91.77 34.76 91.57 35.52 91.18 36.18C90.93 36.59 90.59 36.93 90.18 37.18C90.46 36.51 90.54 35.77 90.42 35.06C90.21 34.14 89.71 33.32 89 32.72C89 33.39 88.94 34.06 88.8 34.72C88.67 35.35 88.32 35.92 87.8 36.32C88.04 35.58 87.99 34.79 87.66 34.09L86.79 34.57C86.92 34.84 86.98 35.13 86.98 35.43C86.98 35.72 86.92 36.02 86.79 36.29C86.43 36.86 85.98 37.38 85.46 37.82C87.22 37.71 88.81 37.53 89.64 35.56C89.56 36.81 89.05 38.01 88.2 38.93C89.77 38.63 91.09 38.31 92.05 36.79C92.68 35.76 92.93 34.54 92.75 33.36C93.65 34.58 93.54 36.16 93.54 37.61C94.82 36.31 95.56 34.58 95.62 32.75C95.59 31.91 95.4 31.08 95.05 30.31C94.69 29.54 94.19 28.85 93.56 28.29L93.24 29.29C93.89 30 94.33 30.88 94.53 31.82C94.72 32.77 94.65 33.75 94.34 34.66L94.26 34.66Z" fill="#E3E3E2" fill-opacity="1.000000" fill-rule="evenodd"/>
	<path id="Vector" d="M80.31 30.07C79.66 29.88 78.98 29.85 78.31 29.99C75.97 30.64 73.48 30.49 71.23 29.58C71.4 29.84 71.61 30.07 71.87 30.27C73.56 31.72 75.33 31.2 77.14 30.66C78.15 30.3 79.22 30.09 80.29 30.04L80.31 30.07Z" fill="#CA0538" fill-opacity="1.000000" fill-rule="nonzero"/>
	<path id="Vector" d="M89.22 18.37C89.83 19.37 90.83 20.76 92.09 20.76C92.63 20.77 93.18 20.64 93.65 20.35C94.12 20.07 94.5 19.66 94.75 19.17C94.47 19.23 94.19 19.22 93.92 19.12C93.53 18.95 93.21 18.64 93.03 18.25C92.84 17.87 92.81 17.43 92.92 17.02C93.04 16.6 93.32 16.25 93.69 16.03C94.06 15.82 94.51 15.76 94.92 15.87C95.21 15.95 95.46 16.11 95.66 16.33C95.45 15.93 95.39 15.46 95.52 15.03C95.66 14.56 95.96 14.17 96.37 13.9C96.77 13.64 97.25 13.52 97.74 13.57L94.15 22.4L82.33 22.4L78.72 14C79.19 13.95 79.67 14.07 80.07 14.34C80.47 14.6 80.77 15 80.91 15.46C80.98 15.64 81 15.84 80.97 16.03C80.94 16.23 80.87 16.41 80.76 16.58C80.94 16.37 81.23 15.99 81.51 15.89C81.97 15.82 82.44 15.92 82.83 16.18C83.22 16.43 83.51 16.82 83.64 17.27C83.78 18.27 83.46 18.94 82.64 19.21C82.31 19.28 81.97 19.28 81.64 19.21C81.91 19.72 82.32 20.13 82.82 20.41C83.32 20.69 83.88 20.83 84.46 20.81C85.71 20.81 86.63 19.45 87.25 18.43C86.96 18.64 86.6 18.75 86.25 18.74C85.82 18.7 85.43 18.51 85.14 18.2C84.85 17.89 84.69 17.48 84.69 17.06C84.69 16.64 84.85 16.23 85.14 15.92C85.43 15.61 85.82 15.42 86.25 15.39C86.54 15.38 86.82 15.46 87.06 15.62C86.75 15.29 86.56 14.86 86.55 14.41C86.55 13.97 86.73 13.55 87.04 13.24C87.35 12.93 87.77 12.76 88.21 12.76C88.64 12.76 89.06 12.93 89.37 13.24C89.68 13.55 89.86 13.97 89.86 14.41C89.84 14.87 89.65 15.31 89.33 15.64C89.58 15.48 89.87 15.39 90.16 15.39C90.59 15.42 90.98 15.61 91.27 15.92C91.56 16.23 91.72 16.64 91.72 17.06C91.72 17.48 91.56 17.89 91.27 18.2C90.98 18.51 90.59 18.7 90.16 18.74C89.82 18.69 89.48 18.59 89.16 18.43L89.22 18.37Z" fill="#E8B427" fill-opacity="1.000000" fill-rule="evenodd"/>
	<path id="Vector" d="M85.31 24.6C85.13 24.59 84.96 24.59 84.79 24.6C84.78 24.83 84.68 25.05 84.51 25.21C84.34 25.36 84.12 25.45 83.89 25.45C83.68 25.45 83.48 25.38 83.32 25.26C83.16 25.13 83.04 24.95 83 24.76C82.83 24.74 82.66 24.71 82.51 24.66C82.53 24.97 82.66 25.27 82.87 25.51C83.08 25.75 83.36 25.92 83.67 26C84.01 26.04 84.36 25.96 84.64 25.76C84.92 25.56 85.12 25.25 85.18 24.92C85.18 24.82 85.27 24.72 85.31 24.64L85.31 24.6ZM83.61 22.4C83.47 22.5 83.35 22.62 83.26 22.76C82.99 23.01 82.76 23.3 82.56 23.61C83.09 23.83 83.68 23.85 84.22 23.67C84.98 23.49 85.78 23.59 86.49 23.93C86.84 24.06 87.15 24.27 87.41 24.56L86.71 25.19C86.71 25.19 86.26 24.68 86.09 25.14C85.94 25.69 85.6 26.16 85.13 26.48C84.65 26.79 84.08 26.91 83.52 26.82C82.93 26.67 82.41 26.33 82.05 25.85C81.68 25.37 81.5 24.78 81.51 24.18C80.81 23.77 77.33 22 75.78 27.02C76.97 26.41 78.93 25.73 80.31 26.86C80.9 27.62 81.73 28.16 82.66 28.42C84.99 29.05 85.06 29.63 85.14 30.22C85.13 30.26 85.13 30.3 85.14 30.35L85.14 30.5L85.08 30.64C85.08 30.64 84.71 31.5 82.59 32.83C81.93 33.3 81.16 33.58 80.36 33.65C79.56 33.72 78.75 33.57 78.03 33.22C78.26 33.85 78.96 34.68 80.89 34.65C81.29 34.68 81.71 34.68 82.12 34.65L85.29 34.31L82.52 35.7C82.52 35.7 79.12 37.13 79.87 40.59C80.63 39.79 81.59 39.19 82.65 38.85L84.12 38.49L83.12 39.64C82 40.94 81.45 42.64 81.58 44.36C81.72 46.07 82.52 47.66 83.83 48.79C83.95 47.24 84.34 44.39 85.73 43.25L86.31 42.77L86.5 43.5C86.5 43.5 87.5 47.34 87.18 49.5C87.14 50.22 87.02 50.94 86.81 51.65C88.54 51.32 92.38 49.85 90.81 43.36L90.61 42.49L91.45 42.79C92.32 43.16 93.06 43.8 93.55 44.61C94.04 45.43 94.26 46.39 94.18 47.34C95.68 46.24 98.59 43.34 95.46 38.44L95 37.7L95.9 37.7C96.6 37.74 97.29 37.98 97.87 38.39C98.45 38.79 98.91 39.35 99.21 40C99.88 38.29 100.61 34.56 96.53 30.93L95.83 30.31L96.74 30.1C97.68 29.9 98.66 30.04 99.52 30.5C99.27 29.55 98.83 28.66 98.23 27.9C97.62 27.13 96.86 26.5 96 26.05C95.22 26.71 94.3 27.16 93.31 27.37L93 26.41C95.18 25.95 97 23.34 97.38 22.05C96.43 22.09 95.5 22.34 94.65 22.76C93.8 23.19 93.05 23.78 92.45 24.52L91.7 23.92C91.7 23.92 94.24 20.69 98.06 21.13L98.6 21.19L98.48 21.72C98.13 23.05 97.49 24.28 96.6 25.33C97.75 25.99 98.72 26.92 99.44 28.04C100.15 29.16 100.58 30.44 100.7 31.77L100.78 33.53L99.78 32.06C99.58 31.75 99.31 31.49 99.01 31.3C98.7 31.11 98.35 30.98 98 30.94C103 36.17 99.59 41.41 99.58 41.42L98.98 42.37L98.7 41.29C98.6 40.78 98.39 40.3 98.08 39.89C97.76 39.48 97.36 39.15 96.9 38.93C100.32 45.5 93.9 48.7 93.9 48.71L93.06 49.14L93.2 48.21C93.38 47.5 93.37 46.75 93.16 46.05C92.96 45.34 92.57 44.71 92.04 44.21C93.43 52.55 86.14 52.7 86.11 52.7L85.23 52.7L85.68 51.95C86.02 51.14 86.22 50.28 86.26 49.41C86.34 47.81 86.19 46.21 85.81 44.67C84.81 46.43 84.81 49.83 84.81 49.84L84.81 50.84L84 50.21C79.49 46.44 80.42 42.58 81.44 40.53C80.91 40.9 80.42 41.34 80 41.84L79.47 42.47L79.18 41.69C78.73 40.67 78.63 39.54 78.9 38.47C79.16 37.4 79.78 36.44 80.65 35.76C76.91 35.62 77.05 32.63 77.05 32.62L77.05 31.99L77.65 32.18L78.22 32.37C79.6 32.84 80.58 33.18 82.16 32.16C82.94 31.73 83.63 31.17 84.22 30.5C84.22 30.24 84.15 29.98 82.45 29.5C81.33 29.18 80.33 28.53 79.61 27.63C78.06 26.46 75.26 28.47 75.25 28.48L74.25 29.18L74.51 27.98C75.43 23.57 77.51 22.55 79.22 22.58C80.06 22.61 80.89 22.83 81.65 23.22C81.81 22.92 82.01 22.65 82.24 22.4L83.61 22.4Z" fill="#E3E3E2" fill-opacity="1.000000" fill-rule="nonzero"/>
	<path id="Vector" d="M164.84 74.57L149.35 74.57L141.24 94.62L141.24 74.55L130.84 74.55L130.84 101.48L149.07 101.48L150.71 97.38L163.71 97.38L165.57 101.48L175.74 101.48L164.84 74.57ZM118.63 89L107.63 74.51L94.41 74.51L94.41 94.51L86.12 74.51L70.83 74.51L64.43 90.51L54.89 90.51C54.09 93.86 52.28 95.34 48.97 95.34C45.18 95.34 42.62 92.53 42.62 88.34C42.62 82.89 44.78 80.07 48.9 80.07C52.28 80.07 54.2 81.58 54.79 84.73L65.61 84.73L65.61 84.32C65.61 77.82 59.03 73.54 49.02 73.54C38.31 73.54 33.25 77.71 32.38 87.29C30.8 85.61 28.71 84.51 26.43 84.17L22.43 83.81L16.43 83.71C13.88 83.65 12.43 82.71 12.43 81.25C12.43 79.53 13.93 78.58 16.64 78.58C19.76 78.58 21.02 79.74 21.02 82.58L32.41 82.58L32.41 82.22C32.41 76.66 27.03 73.58 17.28 73.58C6.44 73.58 1.15 76.58 1.15 82.59C1.15 87.73 5.04 90.5 12.49 90.7L16.92 90.81C20.17 90.91 21.63 91.7 21.63 93.42C21.63 94.88 19.58 96.26 17.45 96.26C13.75 96.26 11.8 94.98 11.8 92.57L0 92.57L0 92.83C0 98.67 5.89 101.83 16.59 101.83C26.91 101.83 31.98 99.57 33.59 94.22C36.9 99.85 41.2 101.9 49.59 101.9C54.91 101.9 57.68 101.16 61.13 98.65L60 101.48L70.08 101.48L71.93 97.28L85.15 97.28L86.91 101.43L104.17 101.43L104.17 85.43L116.43 101.43L128.64 101.43L128.64 74.57L118.64 74.57L118.64 89L118.63 89ZM153.5 90.59L157.06 81.68L161.06 90.54L153.46 90.54L153.5 90.59ZM74.69 90.59L78.29 81.4L82.38 90.59L74.69 90.59Z" fill="#002E61" fill-opacity="1.000000" fill-rule="evenodd"/>
</svg>
