<svg width="130.000000" height="128.000000" viewBox="0 0 130 128" fill="none" xmlns="http://www.w3.org/2000/svg" xmlns:xlink="http://www.w3.org/1999/xlink">
	<desc>
			Created with Pixso.
	</desc>
	<defs>
		<radialGradient id="paint_radial_71_618_0" cx="0.000000" cy="0.000000" r="1.000000" gradientUnits="userSpaceOnUse" gradientTransform="translate(19.7336 51.0537) rotate(0) scale(130.786 131.748)">
			<stop stop-color="#FFFFFF"/>
			<stop offset="0.040000" stop-color="#FDFCFC"/>
			<stop offset="0.220000" stop-color="#FCFBFA"/>
			<stop offset="0.230000" stop-color="#F9F8F7"/>
			<stop offset="0.380000" stop-color="#B7B6B5"/>
			<stop offset="0.500000" stop-color="#888784"/>
			<stop offset="0.590000" stop-color="#6A6966"/>
			<stop offset="0.650000" stop-color="#5F5E5B"/>
			<stop offset="0.730000" stop-color="#555451"/>
			<stop offset="0.870000" stop-color="#3A3935"/>
			<stop offset="1.000000" stop-color="#1D1C18"/>
		</radialGradient>
		<linearGradient id="paint_linear_71_619_0" x1="39.789150" y1="55.123829" x2="86.692917" y2="71.374878" gradientUnits="userSpaceOnUse">
			<stop stop-color="#E4E2DC"/>
			<stop offset="1.000000" stop-color="#FFFFFF"/>
		</linearGradient>
		<radialGradient id="paint_radial_71_620_0" cx="0.000000" cy="0.000000" r="1.000000" gradientUnits="userSpaceOnUse" gradientTransform="translate(101.713 104.142) rotate(0) scale(143.522 144.578)">
			<stop stop-color="#C6C6C1"/>
			<stop offset="1.000000" stop-color="#87867E"/>
		</radialGradient>
		<radialGradient id="paint_radial_71_621_0" cx="0.000000" cy="0.000000" r="1.000000" gradientUnits="userSpaceOnUse" gradientTransform="translate(87.0735 86.4462) rotate(0) scale(100.776 101.517)">
			<stop stop-color="#FFFFFF"/>
			<stop offset="0.210000" stop-color="#F2F2F2"/>
			<stop offset="0.300000" stop-color="#E7E7E7"/>
			<stop offset="0.380000" stop-color="#C2C1C0"/>
			<stop offset="0.450000" stop-color="#A4A3A2"/>
			<stop offset="0.510000" stop-color="#8F8E8C"/>
			<stop offset="0.580000" stop-color="#82817E"/>
			<stop offset="0.640000" stop-color="#7E7D7A"/>
			<stop offset="0.750000" stop-color="#565552"/>
			<stop offset="0.850000" stop-color="#373632"/>
			<stop offset="0.940000" stop-color="#24231F"/>
			<stop offset="1.000000" stop-color="#1D1C18"/>
		</radialGradient>
		<linearGradient id="paint_linear_71_622_0" x1="7.524482" y1="79.072662" x2="7.524482" y2="78.718735" gradientUnits="userSpaceOnUse">
			<stop stop-color="#FFFFFF"/>
			<stop offset="0.170000" stop-color="#FCFBFA"/>
			<stop offset="0.430000" stop-color="#BCBCB6"/>
			<stop offset="0.520000" stop-color="#90908A"/>
			<stop offset="0.620000" stop-color="#696964"/>
			<stop offset="0.720000" stop-color="#4B4A46"/>
			<stop offset="0.820000" stop-color="#353530"/>
			<stop offset="0.910000" stop-color="#282723"/>
			<stop offset="1.000000" stop-color="#24231F"/>
		</linearGradient>
		<linearGradient id="paint_linear_71_623_0" x1="17.856876" y1="83.667953" x2="17.856876" y2="83.656158" gradientUnits="userSpaceOnUse">
			<stop stop-color="#FFFFFF"/>
			<stop offset="0.170000" stop-color="#FCFBFA"/>
			<stop offset="0.430000" stop-color="#BCBCB6"/>
			<stop offset="0.520000" stop-color="#90908A"/>
			<stop offset="0.620000" stop-color="#696964"/>
			<stop offset="0.720000" stop-color="#4B4A46"/>
			<stop offset="0.820000" stop-color="#353530"/>
			<stop offset="0.910000" stop-color="#282723"/>
			<stop offset="1.000000" stop-color="#24231F"/>
		</linearGradient>
		<linearGradient id="paint_linear_71_624_0" x1="17.856876" y1="84.769073" x2="17.856876" y2="84.753151" gradientUnits="userSpaceOnUse">
			<stop stop-color="#FFFFFF"/>
			<stop offset="0.170000" stop-color="#FCFBFA"/>
			<stop offset="0.430000" stop-color="#BCBCB6"/>
			<stop offset="0.520000" stop-color="#90908A"/>
			<stop offset="0.620000" stop-color="#696964"/>
			<stop offset="0.720000" stop-color="#4B4A46"/>
			<stop offset="0.820000" stop-color="#353530"/>
			<stop offset="0.910000" stop-color="#282723"/>
			<stop offset="1.000000" stop-color="#24231F"/>
		</linearGradient>
		<linearGradient id="paint_linear_71_625_0" x1="11.333086" y1="91.385429" x2="11.333086" y2="91.327682" gradientUnits="userSpaceOnUse">
			<stop stop-color="#FFFFFF"/>
			<stop offset="0.170000" stop-color="#FCFBFA"/>
			<stop offset="0.430000" stop-color="#BCBCB6"/>
			<stop offset="0.520000" stop-color="#90908A"/>
			<stop offset="0.620000" stop-color="#696964"/>
			<stop offset="0.720000" stop-color="#4B4A46"/>
			<stop offset="0.820000" stop-color="#353530"/>
			<stop offset="0.910000" stop-color="#282723"/>
			<stop offset="1.000000" stop-color="#24231F"/>
		</linearGradient>
		<linearGradient id="paint_linear_71_626_0" x1="22.525547" y1="88.072617" x2="22.525547" y2="88.041946" gradientUnits="userSpaceOnUse">
			<stop stop-color="#FFFFFF"/>
			<stop offset="0.170000" stop-color="#FCFBFA"/>
			<stop offset="0.430000" stop-color="#BCBCB6"/>
			<stop offset="0.520000" stop-color="#90908A"/>
			<stop offset="0.620000" stop-color="#696964"/>
			<stop offset="0.720000" stop-color="#4B4A46"/>
			<stop offset="0.820000" stop-color="#353530"/>
			<stop offset="0.910000" stop-color="#282723"/>
			<stop offset="1.000000" stop-color="#24231F"/>
		</linearGradient>
		<linearGradient id="paint_linear_71_627_0" x1="147.186752" y1="298.536072" x2="147.186752" y2="286.635956" gradientUnits="userSpaceOnUse">
			<stop stop-color="#FFFFFF"/>
			<stop offset="0.170000" stop-color="#FCFBFA"/>
			<stop offset="0.430000" stop-color="#BCBCB6"/>
			<stop offset="0.520000" stop-color="#90908A"/>
			<stop offset="0.620000" stop-color="#696964"/>
			<stop offset="0.720000" stop-color="#4B4A46"/>
			<stop offset="0.820000" stop-color="#353530"/>
			<stop offset="0.910000" stop-color="#282723"/>
			<stop offset="1.000000" stop-color="#24231F"/>
		</linearGradient>
		<linearGradient id="paint_linear_71_628_0" x1="22.525547" y1="86.853012" x2="22.525547" y2="86.828239" gradientUnits="userSpaceOnUse">
			<stop stop-color="#FFFFFF"/>
			<stop offset="0.170000" stop-color="#FCFBFA"/>
			<stop offset="0.430000" stop-color="#BCBCB6"/>
			<stop offset="0.520000" stop-color="#90908A"/>
			<stop offset="0.620000" stop-color="#696964"/>
			<stop offset="0.720000" stop-color="#4B4A46"/>
			<stop offset="0.820000" stop-color="#353530"/>
			<stop offset="0.910000" stop-color="#282723"/>
			<stop offset="1.000000" stop-color="#24231F"/>
		</linearGradient>
		<linearGradient id="paint_linear_71_629_0" x1="-437.410217" y1="298.536072" x2="-437.410217" y2="286.635956" gradientUnits="userSpaceOnUse">
			<stop stop-color="#FFFFFF"/>
			<stop offset="0.170000" stop-color="#FCFBFA"/>
			<stop offset="0.430000" stop-color="#BCBCB6"/>
			<stop offset="0.520000" stop-color="#90908A"/>
			<stop offset="0.620000" stop-color="#696964"/>
			<stop offset="0.720000" stop-color="#4B4A46"/>
			<stop offset="0.820000" stop-color="#353530"/>
			<stop offset="0.910000" stop-color="#282723"/>
			<stop offset="1.000000" stop-color="#24231F"/>
		</linearGradient>
		<radialGradient id="paint_radial_71_631_0" cx="0.000000" cy="0.000000" r="1.000000" gradientUnits="userSpaceOnUse" gradientTransform="translate(5.82638 51.0537) rotate(0) scale(81.3643 81.9631)">
			<stop stop-color="#0069B4"/>
			<stop offset="0.010000" stop-color="#0068B3"/>
			<stop offset="0.130000" stop-color="#0061A6"/>
			<stop offset="0.240000" stop-color="#005EA1"/>
			<stop offset="0.490000" stop-color="#005490"/>
			<stop offset="0.840000" stop-color="#004273"/>
			<stop offset="0.960000" stop-color="#004072"/>
			<stop offset="1.000000" stop-color="#003B6E"/>
		</radialGradient>
		<linearGradient id="paint_linear_71_632_0" x1="124.813240" y1="33.681828" x2="93.134155" y2="1.740116" gradientUnits="userSpaceOnUse">
			<stop offset="0.010000" stop-color="#20200B"/>
			<stop offset="0.650000" stop-color="#43423E"/>
			<stop offset="0.660000" stop-color="#64635F"/>
			<stop offset="0.670000" stop-color="#A6A5A2"/>
			<stop offset="0.680000" stop-color="#F2F2EF"/>
			<stop offset="0.690000" stop-color="#6F6E68"/>
			<stop offset="0.710000" stop-color="#585752"/>
			<stop offset="0.740000" stop-color="#42423E"/>
			<stop offset="0.770000" stop-color="#31312E"/>
			<stop offset="0.800000" stop-color="#262623"/>
			<stop offset="0.850000" stop-color="#1F1F1D"/>
			<stop offset="1.000000" stop-color="#1D1D1B"/>
		</linearGradient>
		<radialGradient id="paint_radial_71_633_0" cx="0.000000" cy="0.000000" r="1.000000" gradientUnits="userSpaceOnUse" gradientTransform="translate(122.207 3.86362) rotate(0) scale(33.9921 34.2422)">
			<stop stop-color="#55544F"/>
			<stop offset="1.000000" stop-color="#4F4F4A"/>
		</radialGradient>
		<linearGradient id="paint_linear_71_638_0" x1="97.818604" y1="0.324432" x2="127.536026" y2="0.324432" gradientUnits="userSpaceOnUse">
			<stop stop-color="#5C5C5B"/>
			<stop offset="0.070000" stop-color="#51514F"/>
			<stop offset="0.250000" stop-color="#3D3D3A"/>
			<stop offset="0.440000" stop-color="#2F2E2B"/>
			<stop offset="0.670000" stop-color="#272622"/>
			<stop offset="1.000000" stop-color="#24231F"/>
		</linearGradient>
		<linearGradient id="paint_linear_71_639_0" x1="127.214157" y1="30.142591" x2="127.214157" y2="0.000000" gradientUnits="userSpaceOnUse">
			<stop stop-color="#5C5C5B"/>
			<stop offset="0.080000" stop-color="#565554"/>
			<stop offset="0.450000" stop-color="#3A3A37"/>
			<stop offset="0.770000" stop-color="#2A2925"/>
			<stop offset="1.000000" stop-color="#24231F"/>
		</linearGradient>
		<linearGradient id="paint_linear_71_642_0" x1="17.244919" y1="37.427570" x2="36.275791" y2="63.352551" gradientUnits="userSpaceOnUse">
			<stop stop-color="#FFFFFF"/>
			<stop offset="0.110000" stop-color="#D8E8F4"/>
			<stop offset="0.340000" stop-color="#8CBCDD"/>
			<stop offset="0.540000" stop-color="#5098CC"/>
			<stop offset="0.710000" stop-color="#257FBF"/>
			<stop offset="0.850000" stop-color="#0A6FB7"/>
			<stop offset="0.930000" stop-color="#066BB5"/>
			<stop offset="0.950000" stop-color="#2878BD"/>
			<stop offset="0.970000" stop-color="#4081C2"/>
			<stop offset="0.990000" stop-color="#4F86C6"/>
			<stop offset="1.000000" stop-color="#5488C7"/>
		</linearGradient>
	</defs>
	<path id="Vector" d="M64.41 22.29C75.28 22.29 85.7 26.64 93.39 34.39C101.08 42.13 105.4 52.63 105.4 63.58C105.43 68.99 104.39 74.36 102.33 79.35C100.26 84.35 97.23 88.87 93.39 92.66C89.61 96.54 85.1 99.62 80.12 101.72C75.15 103.82 69.8 104.91 64.41 104.9C53.51 104.87 43.07 100.52 35.33 92.78C27.71 85.05 23.42 74.6 23.42 63.7C23.42 52.75 27.74 42.25 35.42 34.5C43.11 26.76 53.54 22.41 64.41 22.41L64.41 22.29ZM64.41 22.94C53.71 23.01 43.46 27.33 35.9 34.96C28.34 42.59 24.08 52.92 24.03 63.7C24.03 69.05 25.08 74.34 27.15 79.26C29.21 84.19 32.23 88.64 36.04 92.37C39.75 96.16 44.19 99.15 49.08 101.18C53.97 103.2 59.21 104.22 64.5 104.17C75.15 104.16 85.38 99.9 92.92 92.31C100.47 84.73 104.72 74.44 104.75 63.7C104.78 58.35 103.75 53.05 101.73 48.1C99.71 43.15 96.74 38.66 92.99 34.87C89.25 31.08 84.79 28.08 79.88 26.03C74.98 23.98 69.72 22.93 64.41 22.94Z" fill="#C6C5C0" fill-opacity="1.000000" fill-rule="evenodd"/>
	<path id="Vector" d="M64.41 0.41C78.16 0.43 91.53 4.98 102.47 13.39L109.44 6.37L121.68 18.69L114.88 25.89C123.29 37.29 127.64 51.22 127.23 65.42C126.81 79.62 121.65 93.26 112.59 104.14C103.52 115.03 91.08 122.51 77.27 125.39C63.46 128.27 49.09 126.37 36.48 120.01C23.88 113.64 13.77 103.18 7.79 90.31C1.81 77.45 0.32 62.93 3.55 49.1C6.78 35.27 14.54 22.94 25.58 14.11C36.63 5.27 50.31 0.44 64.41 0.41ZM64.41 15.15C54.95 15.17 45.71 18.01 37.85 23.32C29.99 28.62 23.87 36.15 20.26 44.96C16.64 53.76 15.7 63.45 17.55 72.8C19.39 82.14 23.95 90.73 30.64 97.46C37.32 104.21 45.84 108.8 55.12 110.67C64.39 112.53 74.01 111.59 82.75 107.95C91.5 104.32 98.98 98.16 104.25 90.24C109.52 82.33 112.34 73.02 112.37 63.5C112.34 50.7 107.28 38.43 98.29 29.39C89.3 20.35 77.11 15.27 64.41 15.27L64.41 15.15Z" fill="url(#paint_radial_71_618_0)" fill-opacity="1.000000" fill-rule="evenodd"/>
	<path id="Vector" d="M64.41 15.07C70.76 15.05 77.05 16.29 82.92 18.73C88.79 21.16 94.13 24.74 98.62 29.26C103.11 33.78 106.68 39.15 109.11 45.06C111.54 50.97 112.78 57.31 112.78 63.7C112.78 70.1 111.54 76.43 109.11 82.34C106.68 88.25 103.11 93.62 98.62 98.14C94.13 102.66 88.79 106.24 82.92 108.68C77.05 111.11 70.76 112.36 64.41 112.34C51.62 112.31 39.36 107.18 30.33 98.06C21.29 88.94 16.22 76.58 16.22 63.7C16.2 57.31 17.45 50.99 19.87 45.08C22.3 39.18 25.86 33.82 30.36 29.31C34.8 24.77 40.11 21.17 45.95 18.73C51.8 16.28 58.08 15.04 64.41 15.07ZM64.41 15.72C51.77 15.7 39.63 20.74 30.68 29.72C26.26 34.19 22.76 39.49 20.39 45.32C18.02 51.15 16.82 57.4 16.86 63.7C16.84 76.44 21.84 88.66 30.77 97.68C39.75 106.56 51.81 111.59 64.41 111.69C77.03 111.62 89.13 106.59 98.14 97.68C102.57 93.22 106.09 87.92 108.49 82.09C110.89 76.26 112.13 70.01 112.13 63.7C112.15 57.39 110.93 51.13 108.54 45.29C106.14 39.46 102.63 34.16 98.19 29.7C93.75 25.23 88.48 21.7 82.69 19.3C76.89 16.9 70.68 15.68 64.41 15.72Z" fill="url(#paint_linear_71_619_0)" fill-opacity="1.000000" fill-rule="evenodd"/>
	<path id="Vector" d="M64.41 -6.11e-5C78.33 -0.05 91.86 4.58 102.88 13.15L102.65 13.39C90.12 3.76 74.44 -0.73 58.77 0.82C43.09 2.38 28.58 9.87 18.17 21.77C7.76 33.68 2.21 49.12 2.65 64.98C3.09 80.84 9.49 95.95 20.55 107.25C31.61 118.55 46.51 125.2 62.24 125.87C77.98 126.54 93.39 121.18 105.35 110.86C117.32 100.54 124.96 86.03 126.73 70.26C128.49 54.5 124.26 38.64 114.88 25.89L115.09 25.68C123.19 36.6 127.55 49.87 127.53 63.49C127.53 71.86 125.89 80.14 122.7 87.86C119.52 95.59 114.85 102.6 108.97 108.5C103.13 114.41 96.18 119.09 88.53 122.26C80.88 125.44 72.68 127.05 64.41 127C47.76 127 31.8 120.35 20.02 108.5C8.18 96.56 1.5 80.38 1.46 63.49C1.55 46.7 8.21 30.61 19.99 18.73C31.78 6.84 47.73 0.11 64.41 -6.11e-5Z" fill="url(#paint_radial_71_620_0)" fill-opacity="1.000000" fill-rule="evenodd"/>
	<path id="Vector" d="M64.41 15.51C73.87 15.49 83.13 18.3 91.01 23.59C98.89 28.87 105.03 36.39 108.67 45.2C112.3 54 113.26 63.69 111.43 73.05C109.59 82.4 105.04 91 98.35 97.75C91.67 104.5 83.14 109.1 73.86 110.96C64.58 112.83 54.95 111.88 46.21 108.23C37.46 104.59 29.98 98.41 24.72 90.49C19.46 82.56 16.65 73.24 16.65 63.7C16.65 50.93 21.67 38.68 30.63 29.65C39.58 20.61 51.73 15.52 64.41 15.51ZM64.41 22.29C56.3 22.29 48.38 24.71 41.63 29.25C34.89 33.79 29.64 40.24 26.54 47.78C23.44 55.33 22.62 63.63 24.21 71.64C25.79 79.65 29.69 87.01 35.42 92.78C41.16 98.56 48.46 102.49 56.41 104.08C64.36 105.68 72.6 104.86 80.09 101.73C87.58 98.61 93.98 93.31 98.49 86.52C102.99 79.73 105.4 71.75 105.4 63.58C105.4 52.63 101.08 42.13 93.39 34.39C85.7 26.64 75.28 22.29 64.41 22.29Z" fill="url(#paint_radial_71_621_0)" fill-opacity="1.000000" fill-rule="evenodd"/>
	<g opacity="0.670000">
		<path id="Vector" d="M7.29 78.8C7.27 78.85 7.27 78.9 7.29 78.95L7.61 78.95L7.61 78.48C7.48 78.49 7.36 78.54 7.26 78.63C7.25 78.69 7.26 78.75 7.29 78.8Z" fill="url(#paint_linear_71_622_0)" fill-opacity="1.000000" fill-rule="evenodd"/>
	</g>
	<g opacity="0.670000">
		<path id="Vector" d="M16.22 77.45L16.51 77.45L16.51 77.68L16.22 77.68L16.22 77.45Z" fill="url(#paint_linear_71_623_0)" fill-opacity="1.000000" fill-rule="evenodd"/>
	</g>
	<g opacity="0.670000">
		<path id="Vector" d="M16.22 77.74L16.51 77.74L16.51 78.01L16.22 78.01L16.22 77.74Z" fill="url(#paint_linear_71_624_0)" fill-opacity="1.000000" fill-rule="evenodd"/>
	</g>
	<g opacity="0.670000">
		<path id="Vector" d="M10.27 78.8C10.25 78.85 10.25 78.9 10.27 78.95C10.32 78.96 10.37 78.96 10.42 78.95L10.42 78.48C10.29 78.49 10.17 78.54 10.07 78.63C10.09 78.67 10.11 78.71 10.15 78.74C10.19 78.77 10.23 78.79 10.27 78.8Z" fill="url(#paint_linear_71_625_0)" fill-opacity="1.000000" fill-rule="evenodd"/>
	</g>
	<g opacity="0.670000">
		<path id="Vector" d="M17.5 77.89L18.32 77.89L18.32 78.27L17.5 78.27L17.5 77.89Z" fill="url(#paint_linear_71_626_0)" fill-opacity="1.000000" fill-rule="evenodd"/>
	</g>
	<g opacity="0.670000">
		<path id="Vector" d="M3.24 76.68L25.67 76.68C26.59 79.38 27.8 81.97 29.27 84.41L5.44 84.41C4.54 81.88 3.81 79.3 3.24 76.68Z" fill="url(#paint_linear_71_627_0)" fill-opacity="1.000000" fill-rule="evenodd"/>
	</g>
	<g opacity="0.670000">
		<path id="Vector" d="M17.5 77.5L18.32 77.5L18.32 77.86L17.5 77.86L17.5 77.5Z" fill="url(#paint_linear_71_628_0)" fill-opacity="1.000000" fill-rule="evenodd"/>
	</g>
	<g opacity="0.860000">
		<path id="Vector" d="M103.38 76.68L125.89 76.68C125.33 79.3 124.6 81.88 123.7 84.41L99.89 84.41C101.31 81.96 102.48 79.37 103.38 76.68Z" fill="url(#paint_linear_71_629_0)" fill-opacity="1.000000" fill-rule="evenodd"/>
	</g>
	<path id="Vector" d="M126.89 47.57C128.35 52.75 129.06 58.11 129 63.5C128.95 69.08 128.25 74.63 126.89 80.04L2.31 80.04L2.31 79.83L126.68 79.83C128.15 74.45 128.87 68.88 128.82 63.29C128.85 57.99 128.2 52.7 126.89 47.57Z" fill="#1D1D1B" fill-opacity="1.000000" fill-rule="evenodd"/>
	<path id="Vector" d="M2.1 47.36L126.89 47.36C128.18 52.57 128.82 57.92 128.79 63.29C128.85 68.88 128.14 74.44 126.68 79.83L2.31 79.83C0.79 74.45 0.02 68.88 0 63.29C0.05 57.91 0.75 52.56 2.1 47.36Z" fill="url(#paint_radial_71_631_0)" fill-opacity="1.000000" fill-rule="evenodd"/>
	<path id="Vector" d="M112.13 2.12L126.07 16.13L115.73 26.54L116.35 27.39L108.97 33.32L106.66 34.18L121.85 18.69L109.61 6.37L94.45 21.64L95.06 19.52L112.13 2.12Z" fill="url(#paint_linear_71_632_0)" fill-opacity="1.000000" fill-rule="evenodd"/>
	<path id="Vector" d="M98.22 0.64C110.39 7.29 120.42 17.3 127.12 29.49L127.12 0.64L98.22 0.64Z" fill="url(#paint_radial_71_633_0)" fill-opacity="1.000000" fill-rule="evenodd"/>
	<path id="Vector" d="M98.22 0.64C110.39 7.29 120.42 17.3 127.12 " stroke="#B2B1A7" stroke-opacity="1.000000" stroke-width="0.340000" stroke-linecap="round"/>
	<path id="Vector" d="M98.22 0.64C110.33 7.29 120.28 17.3 126.89 " stroke="#CCCBC3" stroke-opacity="1.000000" stroke-width="0.240000" stroke-linecap="round"/>
	<path id="Vector" d="M98.02 0.64C110.24 7.31 120.27 17.41 126.89 " stroke="#E7E6E1" stroke-opacity="1.000000" stroke-width="0.130000" stroke-linecap="round"/>
	<path id="Vector" d="M98.02 0.64C110.13 7.38 120.08 17.47 126.68 " stroke="#FFFFFF" stroke-opacity="1.000000" stroke-width="0.030000" stroke-linecap="round"/>
	<path id="Vector" d="M127.12 0C127.33 0 127.53 0.2 127.53 0.64L97.81 0.64C97.81 0.2 98.02 0 98.22 0L127.12 0Z" fill="url(#paint_linear_71_638_0)" fill-opacity="1.000000" fill-rule="evenodd"/>
	<path id="Vector" d="M127.53 29.49C127.53 29.9 127.33 30.11 127.12 30.11L126.89 29.7L126.89 0L127.12 0C127.33 0 127.53 0.2 127.53 0.64L127.53 29.49Z" fill="url(#paint_linear_71_639_0)" fill-opacity="1.000000" fill-rule="evenodd"/>
	<path id="Vector" d="M109.61 71.43C103.99 71.43 99.39 67.98 99.39 63.7C99.39 59.42 103.99 56.03 109.61 56.03C115.23 56.03 120.04 59.42 120.04 63.7C120.04 67.98 115.35 71.43 109.61 71.43ZM109.61 58.27C107.59 58.27 106.13 60.55 106.13 63.7C106.13 66.86 107.62 68.92 109.61 68.92C111.6 68.92 113.1 66.53 113.1 63.7C113.1 60.87 111.55 58.27 109.61 58.27ZM45.52 71.43C39.9 71.43 35.33 67.98 35.33 63.7C35.33 59.42 39.99 56.18 45.52 56.18C51.06 56.18 55.95 59.54 55.95 63.7C55.95 67.86 51.26 71.43 45.52 71.43ZM45.52 58.48C43.53 58.48 42.04 60.72 42.04 63.7C42.04 66.68 43.53 68.92 45.52 68.92C47.51 68.92 49.04 66.53 49.04 63.7C49.04 60.87 47.43 58.48 45.52 58.48ZM83.06 71.02L76.44 58.66L73.19 58.66L73.19 56.65L87.62 56.65L87.62 58.66L83.97 58.66L89.09 67.24L93.36 58.54L90.9 58.54L90.9 56.53L100.92 56.53L100.92 58.54L97.43 58.54L90.96 70.87L83.06 71.02ZM56.71 71.02L56.71 68.6L60.16 68.6L60.16 58.69L56.88 58.69L56.88 56.68L70.23 56.68L70.23 58.69L66.78 58.69L66.78 68.6L70.29 68.6C71.41 68.59 72.48 68.15 73.29 67.37C74.09 66.59 74.57 65.53 74.63 64.41L76.82 64.41L76.82 71.16L56.71 71.02ZM18.97 71.02L12.35 58.66L9.07 58.66L9.07 56.65L23.48 56.65L23.48 58.66L19.82 58.66L24.94 67.24L29.42 58.54L26.76 58.54L26.76 56.53L36.77 56.53L36.77 58.54L33.31 58.54L26.81 71.02L18.97 71.02Z" fill="#FFFFFF" fill-opacity="1.000000" fill-rule="evenodd"/>
	<path id="Vector" d="M109.61 56.03C115.29 56.03 120.04 59.45 120.04 63.7C120.04 67.95 115.38 71.34 109.7 71.34C104.02 71.34 99.54 67.83 99.54 63.7C99.54 59.57 104.14 56.03 109.61 56.03ZM109.61 68.98C111.52 68.98 113.19 66.65 113.19 63.67C113.19 60.69 111.52 58.16 109.61 58.16C107.71 58.16 106.04 60.49 106.04 63.67C106.04 66.86 107.51 68.98 109.61 68.98ZM45.52 56.27C51.23 56.27 55.86 59.66 55.86 63.7C55.86 67.74 51.23 71.34 45.52 71.34C39.81 71.34 35.42 67.83 35.42 63.7C35.42 59.57 40.05 56.27 45.52 56.27ZM45.52 69.01C47.43 69.01 49.12 66.68 49.12 63.7C49.12 60.72 47.43 58.39 45.52 58.39C43.62 58.39 41.95 60.72 41.95 63.7C41.95 66.68 43.41 69.01 45.52 69.01ZM100.77 56.68L100.77 58.6L97.37 58.6L90.76 70.93L83.06 70.93L76.53 58.6L73.19 58.6L73.19 56.68L87.54 56.68L87.54 58.6L83.91 58.6L88.94 67.3L93.39 58.6L90.76 58.6L90.76 56.68L100.68 56.68L100.77 56.68ZM69.88 56.68L69.88 58.6L66.6 58.6L66.6 68.6L70.26 68.6C71.4 68.6 72.5 68.16 73.32 67.37C74.14 66.58 74.63 65.5 74.68 64.35L76.79 64.35L76.79 70.93L56.71 70.93L56.71 68.6L60.07 68.6L60.07 58.6L56.71 58.6L56.71 56.68L69.97 56.68L69.88 56.68ZM36.68 56.68L36.68 58.6L33.31 58.6L26.76 70.93L18.97 70.93L12.44 58.6L9.07 58.6L9.07 56.68L23.42 56.68L23.42 58.6L19.82 58.6L24.88 67.3L29.51 58.6L26.76 58.6L26.76 56.68L36.68 56.68ZM109.61 56.03C103.93 56.03 99.31 59.54 99.31 63.85C99.31 68.16 103.93 71.66 109.61 71.66C115.29 71.66 120.04 68.01 120.04 63.7C120.04 59.4 115.41 56.03 109.61 56.03ZM109.61 68.98C107.68 68.98 106.22 66.77 106.22 63.85C106.22 60.93 107.65 58.51 109.61 58.51C111.57 58.51 113.01 60.9 113.01 63.85C113.01 66.8 111.46 68.98 109.61 68.98ZM45.52 56.03C39.96 56.03 35.13 59.57 35.13 63.7C35.13 67.83 39.73 71.52 45.41 71.52C51.09 71.52 55.92 68.01 55.92 63.7C55.92 59.4 51.32 56.03 45.52 56.03ZM45.52 68.77C43.59 68.77 42.13 66.56 42.13 63.64C42.13 60.72 43.59 58.51 45.52 58.51C47.46 58.51 48.95 60.87 48.95 63.64C48.95 66.41 47.37 68.77 45.52 68.77ZM100.95 56.45L90.76 56.45L90.76 58.72L93.19 58.72L88.94 66.95L84.2 58.78L87.65 58.78L87.65 56.51L73.01 56.51L73.01 58.78L76.41 58.78L82.91 71.02L90.93 71.02L97.4 58.78L100.86 58.78L100.86 56.51L100.95 56.45ZM70.26 56.51L56.53 56.51L56.53 58.78L59.9 58.78L59.9 68.42L56.53 68.42L56.53 71.1L77.03 71.1L77.03 64.17L74.57 64.17C74.56 64.74 74.45 65.3 74.23 65.81C74.01 66.33 73.69 66.8 73.29 67.2C72.89 67.59 72.42 67.91 71.9 68.11C71.38 68.32 70.82 68.43 70.26 68.42L66.78 68.42L66.78 58.78L70.26 58.78L70.26 56.51ZM36.97 56.51L26.58 56.51L26.58 58.78L29.27 58.78L24.85 66.95L20.11 58.78L23.56 58.78L23.56 56.51L8.78 56.51L8.78 58.78L12.32 58.78L18.82 71.02L26.87 71.02L33.34 58.78L36.8 58.78L36.8 56.51L36.97 56.51Z" fill="#323230" fill-opacity="1.000000" fill-rule="nonzero"/>
	<path id="Vector" d="M2.34 47.6C0.99 52.8 0.28 58.15 0.23 63.52C0.23 63.97 0.38 66.68 0.38 67.15L0.76 71.25C0.76 70.9 0.58 64.23 0.58 63.88C0.71 58.56 1.5 53.28 2.92 48.16L46.84 47.95L65.9 47.6L2.34 47.6Z" fill="url(#paint_linear_71_642_0)" fill-opacity="1.000000" fill-rule="nonzero"/>
</svg>
